HIERARCHY
ROOT hip
{
  OFFSET 0 0 0
  CHANNELS 6 Xposition Yposition Zposition Zrotation Yrotation Xrotation
  JOINT abdomen
  {
    OFFSET 0 20.6881 -0.73152
    CHANNELS 3 Zrotation Xrotation Yrotation
    JOINT chest
    {
      OFFSET 0 11.7043 -0.48768
      CHANNELS 3 Zrotation Xrotation Yrotation
      JOINT neck
      {
        OFFSET 0 22.1894 -2.19456
        CHANNELS 3 Zrotation Xrotation Yrotation
        JOINT head
        {
          OFFSET -0.24384 7.07133 1.2192
          CHANNELS 3 Zrotation Xrotation Yrotation
          JOINT leftEye
          {
            OFFSET 4.14528 8.04674 8.04672
            CHANNELS 3 Zrotation Xrotation Yrotation
            End Site
            {
              OFFSET 1 0 0
            }
          }
          JOINT rightEye
          {
            OFFSET -3.6576 8.04674 8.04672
            CHANNELS 3 Zrotation Xrotation Yrotation
            End Site
            {
              OFFSET 1 0 0
            }
          }
        }
      }
      JOINT rCollar
      {
        OFFSET -2.68224 19.2634 -4.8768
        CHANNELS 3 Zrotation Xrotation Yrotation
        JOINT rShldr
        {
          OFFSET -8.77824 -1.95073 1.46304
          CHANNELS 3 Zrotation Xrotation Yrotation
          JOINT rForeArm
          {
            OFFSET -28.1742 -1.7115 0.48768
            CHANNELS 3 Zrotation Xrotation Yrotation
            JOINT rHand
            {
              OFFSET -22.5879 0.773209 7.07136
              CHANNELS 3 Zrotation Xrotation Yrotation
              JOINT rThumb1
              {
                OFFSET -1.2192 -0.487915 3.41376
                CHANNELS 3 Zrotation Xrotation Yrotation
                JOINT rThumb2
                {
                  OFFSET -3.37035 -0.52449 3.41376
                  CHANNELS 3 Zrotation Xrotation Yrotation
                  End Site
                  {
                    OFFSET -1.78271 -1.18214 1.43049
                  }
                }
              }
              JOINT rIndex1
              {
                OFFSET -7.75947 0.938293 5.60832
                CHANNELS 3 Zrotation Xrotation Yrotation
                JOINT rIndex2
                {
                  OFFSET -2.54057 -0.884171 1.56538
                  CHANNELS 3 Zrotation Xrotation Yrotation
                  End Site
                  {
                    OFFSET -1.62519 -0.234802 1.16502
                  }
                }
              }
              JOINT rMid1
              {
                OFFSET -8.24714 1.18213 3.41376
                CHANNELS 3 Zrotation Xrotation Yrotation
                JOINT rMid2
                {
                  OFFSET -3.10165 -0.590103 1.0647
                  CHANNELS 3 Zrotation Xrotation Yrotation
                  End Site
                  {
                    OFFSET -2.48547 -0.328903 0.83742
                  }
                }
              }
              JOINT rRing1
              {
                OFFSET -8.82822 0.546677 1.51678
                CHANNELS 3 Zrotation Xrotation Yrotation
                JOINT rRing2
                {
                  OFFSET -2.60934 -0.819778 -0.0198488
                  CHANNELS 3 Zrotation Xrotation Yrotation
                  End Site
                  {
                    OFFSET -2.33842 -0.294052 0.168128
                  }
                }
              }
              JOINT rPinky1
              {
                OFFSET -8.27202 -0.0477905 -0.4584
                CHANNELS 3 Zrotation Xrotation Yrotation
                JOINT rPinky2
                {
                  OFFSET -1.82734 -0.647385 -0.700984
                  CHANNELS 3 Zrotation Xrotation Yrotation
                  End Site
                  {
                    OFFSET -1.69225 -0.51767 -0.607171
                  }
                }
              }
            }
          }
        }
      }
      JOINT lCollar
      {
        OFFSET 2.68224 19.2634 -4.8768
        CHANNELS 3 Zrotation Xrotation Yrotation
        JOINT lShldr
        {
          OFFSET 8.77824 -1.95073 1.46304
          CHANNELS 3 Zrotation Xrotation Yrotation
          JOINT lForeArm
          {
            OFFSET 28.1742 -1.7115 0.48768
            CHANNELS 3 Zrotation Xrotation Yrotation
            JOINT lHand
            {
              OFFSET 22.5879 0.773209 7.07136
              CHANNELS 3 Zrotation Xrotation Yrotation
              JOINT lThumb1
              {
                OFFSET 1.2192 -0.487915 3.41376
                CHANNELS 3 Zrotation Xrotation Yrotation
                JOINT lThumb2
                {
                  OFFSET 3.37035 -0.52449 3.41376
                  CHANNELS 3 Zrotation Xrotation Yrotation
                  End Site
                  {
                    OFFSET 1.78271 -1.18214 1.43049
                  }
                }
              }
              JOINT lIndex1
              {
                OFFSET 7.75947 0.938293 5.60832
                CHANNELS 3 Zrotation Xrotation Yrotation
                JOINT lIndex2
                {
                  OFFSET 2.54057 -0.884171 1.56538
                  CHANNELS 3 Zrotation Xrotation Yrotation
                  End Site
                  {
                    OFFSET 1.62519 -0.234802 1.16502
                  }
                }
              }
              JOINT lMid1
              {
                OFFSET 8.24714 1.18213 3.41376
                CHANNELS 3 Zrotation Xrotation Yrotation
                JOINT lMid2
                {
                  OFFSET 3.10165 -0.590103 1.0647
                  CHANNELS 3 Zrotation Xrotation Yrotation
                  End Site
                  {
                    OFFSET 2.48547 -0.328903 0.83742
                  }
                }
              }
              JOINT lRing1
              {
                OFFSET 8.82822 0.546677 1.51678
                CHANNELS 3 Zrotation Xrotation Yrotation
                JOINT lRing2
                {
                  OFFSET 2.60934 -0.819778 -0.0198488
                  CHANNELS 3 Zrotation Xrotation Yrotation
                  End Site
                  {
                    OFFSET 2.33842 -0.294052 0.168128
                  }
                }
              }
              JOINT lPinky1
              {
                OFFSET 8.27202 -0.0477905 -0.4584
                CHANNELS 3 Zrotation Xrotation Yrotation
                JOINT lPinky2
                {
                  OFFSET 1.82734 -0.647385 -0.700984
                  CHANNELS 3 Zrotation Xrotation Yrotation
                  End Site
                  {
                    OFFSET 1.69225 -0.51767 -0.607171
                  }
                }
              }
            }
          }
        }
      }
    }
  }
  JOINT rButtock
  {
    OFFSET -8.77824 4.35084 1.2192
    CHANNELS 3 Zrotation Xrotation Yrotation
    JOINT rThigh
    {
      OFFSET 0 -1.70687 -2.19456
      CHANNELS 3 Zrotation Xrotation Yrotation
      JOINT rShin
      {
        OFFSET 0 -36.8199 0.73152
        CHANNELS 3 Zrotation Xrotation Yrotation
        JOINT rFoot
        {
          OFFSET 0.73152 -45.1104 -5.12064
          CHANNELS 3 Zrotation Xrotation Yrotation
          End Site
          {
            OFFSET -1.1221 -3.69964 12.103
          }
        }
      }
    }
  }
  JOINT lButtock
  {
    OFFSET 8.77824 4.35084 1.2192
    CHANNELS 3 Zrotation Xrotation Yrotation
    JOINT lThigh
    {
      OFFSET 0 -1.70687 -2.19456
      CHANNELS 3 Zrotation Xrotation Yrotation
      JOINT lShin
      {
        OFFSET 0 -36.8199 0.73152
        CHANNELS 3 Zrotation Xrotation Yrotation
        JOINT lFoot
        {
          OFFSET -0.73152 -45.1104 -5.12064
          CHANNELS 3 Zrotation Xrotation Yrotation
          End Site
          {
            OFFSET 1.1221 -3.69964 12.103
          }
        }
      }
    }
  }
}
MOTION
Frames:	4
Frame Time:	0.03333
-7.185145188122988 43.36940050125122 12.804637989029288 178.92913818359375 -70.22441101074219 -164.7187042236328 -10.853099822998047 17.710643768310547 14.806031227111816 -5.2731614112854 -12.974713325500488 3.000446081161499 0.2529914975166321 15.333873748779297 16.250173568725586 -2.0859768390655518 -17.972278594970703 30.830093383789062 -0.005285549908876419 0.0074748205952346325 -0.005438092164695263 0.03455505892634392 0.016400925815105438 -0.017029939219355583 0.0006820278940722346 0.030231887474656105 -0.006802537478506565 74.4199447631836 50.278385162353516 -19.829904556274414 -27.37972068786621 -43.148193359375 89.54729461669922 -0.07062229514122009 5.809629917144775 0.7254625558853149 0.0940362960100174 -0.011232572607696056 -0.08965541422367096 -0.09199389815330505 -0.020320409908890724 -0.02535495162010193 0.09666122496128082 0.04778257757425308 -0.06894479691982269 7.687562942504883 5.432657718658447 0.429380863904953 -0.07782518118619919 0.0018503161845728755 0.07534018903970718 2.8732197284698486 0.9763490557670593 0.13566234707832336 -0.05585243180394173 0.03573315218091011 -0.022341085597872734 10.342616081237793 0.7184814810752869 0.00736142136156559 0.03543438762426376 -0.007308396510779858 -0.0009392626234330237 2.280602216720581 -0.813159704208374 -0.25712043046951294 0.03447305038571358 -0.044708188623189926 0.0021290520671755075 -40.4901237487793 47.711605072021484 -28.23233413696289 25.57041358947754 -47.16118621826172 -98.02738952636719 1.07930588722229 -27.762115478515625 4.1983466148376465 0.09557030349969864 -0.07764511555433273 0.021239416673779488 0.07274147868156433 0.017265059053897858 -0.09489285945892334 -0.0023259075824171305 -0.013456819579005241 -0.05035482347011566 -7.868882656097412 5.462368011474609 -0.4103667736053467 0.07756507396697998 -0.06581777334213257 -0.01908937469124794 -2.8413777351379395 0.9519937634468079 -0.09913813322782516 0.016050811856985092 -0.06308983266353607 0.04603572189807892 -10.25218391418457 0.7492669224739075 0.11334855854511261 -0.04308571293950081 -0.11958229541778564 0.047624800354242325 -2.2782905101776123 -0.7670264840126038 0.19741211831569672 -0.0574064701795578 -0.030738959088921547 0.013668318279087543 -74.28108978271484 -49.190338134765625 -60.150794982910156 -164.05967712402344 86.71430969238281 165.8695526123047 4.860073566436768 -24.37577247619629 5.551175594329834 -0.00933703314512968 0.06912508606910706 0.02805662900209427 57.750762939453125 -52.68728256225586 43.569053649902344 139.2108612060547 88.71001434326172 -142.24197387695312 0.9393705129623413 -28.124380111694336 6.60005521774292
-7.090069353580475 43.79114508628845 13.19847865961492 179.53753662109375 -69.91825103759766 -164.92047119140625 -10.82948112487793 17.640239715576172 14.830883026123047 -5.319553375244141 -12.982704162597656 3.0155155658721924 0.2882370948791504 15.357924461364746 16.34269142150879 -2.1045186519622803 -17.994619369506836 30.96742057800293 -0.0228824894875288 0.00371185434050858 0.01243502739816904 0.04606854170560837 -0.006762800272554159 -0.03417174890637398 0.0035129725001752377 0.03183838352560997 0.007756946142762899 74.28252410888672 50.04477310180664 -19.956716537475586 -27.36433219909668 -43.172298431396484 89.50959777832031 -0.02351083792746067 5.630960941314697 0.7119994759559631 0.05170794948935509 0.009350133128464222 -0.11330623179674149 -0.08259118348360062 -0.005200943909585476 -0.05431097373366356 0.11461792886257172 0.014518669806420803 -0.09015005826950073 7.708612442016602 5.415444850921631 0.42386823892593384 -0.06083839386701584 0.03300637751817703 0.0693616196513176 2.8679146766662598 0.99836665391922 0.11720248311758041 -0.019874997437000275 0.03386276215314865 -0.043792348355054855 10.361895561218262 0.7105854749679565 0.012616418302059174 0.03712226077914238 -0.04381410777568817 -0.0017819898203015327 2.2722408771514893 -0.8168728351593018 -0.2591914236545563 0.030268074944615364 -0.041947945952415466 0.014080389402806759 -40.54631805419922 47.59455871582031 -28.26859474182129 25.6672306060791 -47.01347351074219 -97.76815795898438 0.9908691644668579 -27.61313819885254 4.184597015380859 0.11040777713060379 -0.08861786127090454 0.01271547470241785 0.05939631909132004 0.016156546771526337 -0.05522787570953369 -0.029392961412668228 -0.02740783803164959 -0.0315457358956337 -7.877080917358398 5.472743988037109 -0.4580516815185547 0.08506175875663757 -0.08258789777755737 -0.04570740461349487 -2.84122896194458 0.9838358759880066 -0.15454524755477905 0.022900046780705452 -0.02921009249985218 0.07043113559484482 -10.242233276367188 0.7410439848899841 0.11515399068593979 -0.060673829168081284 -0.14013081789016724 0.06000353768467903 -2.2743656635284424 -0.7771062850952148 0.20248201489448547 -0.0673215389251709 -0.05620971694588661 -0.011015200056135654 -74.7034912109375 -49.1641845703125 -60.577728271484375 -165.94082641601562 86.31697845458984 167.74139404296875 4.735937118530273 -24.505460739135742 5.344854354858398 -0.000740867923013866 0.07751268148422241 0.0037105251103639603 57.978515625 -52.715057373046875 43.57068634033203 146.1547088623047 88.46979522705078 -149.25619506835938 1.0059480667114258 -28.211023330688477 6.5839433670043945
-6.988278217613697 43.03557872772217 13.554414315149188 -179.98817443847656 -69.70733642578125 -165.4143524169922 -10.767755508422852 17.4770565032959 14.791542053222656 -5.327861785888672 -12.979948043823242 3.0252909660339355 0.33645084500312805 15.31443977355957 16.35352325439453 -2.1563799381256104 -17.83729362487793 31.1002140045166 -0.035937145352363586 0.011651488952338696 0.03555118665099144 0.05941014736890793 -0.03396793454885483 -0.037286438047885895 0.054499343037605286 0.02483549527823925 0.02585611678659916 73.95687103271484 50.18220901489258 -19.900590896606445 -27.436784744262695 -42.87244415283203 89.01559448242188 -0.02900797873735428 5.648899078369141 0.7040442824363708 0.10265372693538666 0.03141053020954132 -0.07725058495998383 -0.10104154050350189 0.0036304921377450228 -0.02720155008137226 0.0999726876616478 -0.026015406474471092 -0.09111523628234863 7.658646583557129 5.3628973960876465 0.426410049200058 -0.04334520548582077 -0.0010488028638064861 0.033950325101614 2.8769378662109375 0.9885101318359375 0.10947515815496445 0.03429878503084183 0.027898402884602547 -0.052995726466178894 10.329930305480957 0.7510929703712463 0.039455678313970566 0.060364507138729095 -0.0727245956659317 -0.025723641738295555 2.2552249431610107 -0.8234037756919861 -0.23721766471862793 0.020972536876797676 -0.01944105327129364 -0.023472020402550697 -41.0727653503418 47.64827346801758 -27.711544036865234 25.669462203979492 -46.9794807434082 -97.6710205078125 1.083919644355774 -27.56089973449707 4.220534324645996 0.08577682077884674 -0.08858949691057205 -0.01728295534849167 0.051563993096351624 0.01914363168179989 -0.061870645731687546 -0.040419839322566986 -0.041954610496759415 0.0058404868468642235 -7.85007905960083 5.4809184074401855 -0.42103758454322815 0.06612555682659149 -0.10537103563547134 -0.014611918479204178 -2.806206703186035 1.001941442489624 -0.1257765144109726 0.06988656520843506 0.025367967784404755 0.06755339354276657 -10.266338348388672 0.7238390445709229 0.07255583256483078 -0.07137180864810944 -0.14508606493473053 0.07846187800168991 -2.2549853324890137 -0.8119736909866333 0.26688867807388306 -0.06029066443443298 -0.07584346830844879 0.012685297057032585 -75.20696258544922 -49.086326599121094 -61.06148147583008 -168.23033142089844 85.78438568115234 170.01661682128906 4.6516337394714355 -24.458585739135742 5.092988014221191 0.0009446702897548676 0.084488146007061 -0.055037662386894226 58.41766357421875 -52.86773681640625 43.830238342285156 151.052001953125 88.1443862915039 -154.15237426757812 0.9960997104644775 -28.168121337890625 6.769796848297119
-6.890854891389608 42.84602403640747 13.907863898202777 179.12649536132812 -70.18986511230469 -166.53294372558594 -10.641314506530762 17.44444465637207 14.744702339172363 -5.25025749206543 -12.98884105682373 3.0228590965270996 0.28928273916244507 15.1885986328125 16.169231414794922 -2.07426118850708 -17.748554229736328 30.87639617919922 -0.03222603723406792 0.02717158943414688 0.028053391724824905 0.03473133221268654 -0.02409275434911251 -0.03155096620321274 0.10215814411640167 0.042997077107429504 0.013657188974320889 73.13335418701172 50.63398361206055 -19.21619987487793 -27.510456085205078 -42.54368591308594 88.39473724365234 -0.04474537447094917 5.712100505828857 0.7040459513664246 0.135419562458992 0.04046327620744705 -0.022593853995203972 -0.1069621816277504 0.009859628975391388 0.011751295067369938 0.08684653788805008 -0.019696250557899475 -0.08806990087032318 7.653682708740234 5.352030277252197 0.4535064399242401 -0.020101699978113174 -0.04889130964875221 0.01745188608765602 2.8700900077819824 0.9718777537345886 0.11751420050859451 0.030538365244865417 -0.00576800899580121 -0.042457640171051025 10.339923858642578 0.7528210878372192 0.03777562826871872 0.09050512313842773 -0.10183673352003098 -0.0485822856426239 2.2473642826080322 -0.8561906814575195 -0.21906723082065582 -0.0019235836807638407 -0.05238892138004303 -0.0025196275673806667 -41.126712799072266 47.469085693359375 -27.730915069580078 25.731842041015625 -46.864295959472656 -97.36009979248047 1.119431734085083 -27.575702667236328 4.216818809509277 0.07732465118169785 -0.0724991038441658 0.018946874886751175 0.02766413427889347 0.02003931626677513 -0.0533595010638237 -0.05867593362927437 -0.0481579415500164 0.024469835683703423 -7.803068161010742 5.525376319885254 -0.4040493965148926 0.02735375612974167 -0.08925146609544754 -0.027080930769443512 -2.846566677093506 1.0081716775894165 -0.13814322650432587 0.0745941698551178 0.016957638785243034 0.03888138756155968 -10.284802436828613 0.7107440233230591 -0.007457076571881771 -0.032263170927762985 -0.1176210418343544 0.09428434818983078 -2.2547833919525146 -0.8404198288917542 0.2986915111541748 -0.0387263149023056 -0.09116219729185104 0.004959584213793278 -75.31477355957031 -49.13631057739258 -61.258384704589844 -168.7776336669922 85.50576782226562 170.5543975830078 4.489667892456055 -24.197973251342773 4.8678178787231445 -0.01794755645096302 0.08559902012348175 -0.07499483227729797 58.49216079711914 -52.90913772583008 43.57533264160156 152.3787384033203 88.0729751586914 -155.41078186035156 1.195942759513855 -28.116168975830078 7.396786212921143
